<svg xmlns="http://www.w3.org/2000/svg" viewBox="0 0 340 300"><defs><style>.cls-1{fill:#282828;}.cls-2{fill:#136dc1;opacity:0.35;}.cls-3{font-size:60px;font-family:Bender-Bold, Bender;font-weight:700;letter-spacing:0.18em;}.cls-3,.cls-6{fill:#e6e6e6;}.cls-4{fill:#efefef;}.cls-5{fill:#ccc;}</style></defs><g id="Слой_2" data-name="Слой 2"><g id="Слой_5" data-name="Слой 5"><rect class="cls-1" x="27" y="84" width="286" height="190"/><polygon class="cls-2" points="295.17 280 303.24 271.73 115.25 79 71.67 79 66.24 84.57 256.85 280 295.17 280"/><text class="cls-3" transform="translate(49.09 72.3) scale(1.01 1.09)">МОСИТ</text><rect class="cls-4" x="178.8" y="170.15" width="47.09" height="39" transform="translate(-74.84 198.63) rotate(-45)"/><path class="cls-5" d="M248,103.4l-77.8,77.81L93,104V122.6l34.61,34.61L105.3,179.52l-9,9-.5.5,42.68,42.68L148,222.2l-.09-.09L170.2,199.8l31.65,31.65.21-.21.06.06,42.11-42.11-9.3-9.3-22.41-22.41L248,122ZM138.72,212.72,115.5,189.5l22.26-22.26L161,190.46Zm86.91-23.62-23.72,23.73-22.37-22.37,23.72-23.72Z"/><polygon class="cls-5" points="177.72 237 169.59 245.14 161.45 237 153.41 237 148.15 242.26 160.31 254.42 160.26 254.46 169.54 263.74 191.03 242.26 185.77 237 177.72 237"/><path class="cls-6" d="M27,279a4.23,4.23,0,0,0,.5-.05,4.23,4.23,0,0,0,.5.05H313a5,5,0,0,0,5-5V84a5,5,0,0,0-5-5H27a5,5,0,0,0-5,5V274A5,5,0,0,0,27,279ZM32,89H308V269H32Z"/><path class="cls-6" d="M199,287v1.91a3.09,3.09,0,0,1-3.09,3.09H143.09a3.09,3.09,0,0,1-3.09-3.09v-2H0v10.37A2.68,2.68,0,0,0,2.67,300H337.33a2.68,2.68,0,0,0,2.67-2.67V287Z"/></g></g></svg>