<svg xmlns="http://www.w3.org/2000/svg" viewBox="0 0 340 221"><defs><style>.cls-1{fill:#282828;}.cls-2{fill:#136dc1;opacity:0.35;}.cls-3{fill:#efefef;}.cls-4{fill:#ccc;}.cls-5{fill:#e6e6e6;}</style></defs><g id="Слой_2" data-name="Слой 2"><g id="Слой_5" data-name="Слой 5"><rect class="cls-1" x="27" y="5" width="286" height="190"/><polygon class="cls-2" points="295.17 201 303.24 192.73 115.25 0 71.67 0 66.24 5.57 256.85 201 295.17 201"/><rect class="cls-3" x="178.8" y="91.15" width="47.09" height="39" transform="translate(-18.97 175.49) rotate(-45)"/><path class="cls-4" d="M248,24.4l-77.8,77.81L93,25V43.6l34.61,34.61L105.3,100.52l-9,9-.5.5,42.68,42.68L148,143.2l-.09-.09L170.2,120.8l31.65,31.65.21-.21.06.06,42.11-42.11-9.3-9.3L212.52,78.48,248,43ZM138.72,133.72,115.5,110.5l22.26-22.26L161,111.46Zm86.91-23.62-23.72,23.73-22.37-22.37,23.72-23.72Z"/><polygon class="cls-4" points="177.72 158 169.59 166.14 161.45 158 153.41 158 148.15 163.26 160.31 175.42 160.26 175.46 169.54 184.74 191.03 163.26 185.77 158 177.72 158"/><path class="cls-5" d="M27,200a4.23,4.23,0,0,0,.5-.05,4.23,4.23,0,0,0,.5.05H313a5,5,0,0,0,5-5V5a5,5,0,0,0-5-5H27a5,5,0,0,0-5,5V195A5,5,0,0,0,27,200ZM32,10H308V190H32Z"/><path class="cls-5" d="M199,208v1.91a3.09,3.09,0,0,1-3.09,3.09H143.09a3.09,3.09,0,0,1-3.09-3.09V208H0v10.37A2.68,2.68,0,0,0,2.67,221H337.33a2.68,2.68,0,0,0,2.67-2.67V208Z"/></g></g></svg>