<svg id="Слой_1" xmlns="http://www.w3.org/2000/svg" viewBox="0 0 319.35 386.71"><defs><style>.cls-1{fill:#333;stroke:#000;stroke-miterlimit:10;stroke-width:17px;opacity:0.95;}.cls-2{opacity:0.9;}.cls-3{fill:#fff;}</style></defs><path class="cls-1" d="M611,262.56C601.9,342.87,545.44,456.88,461,457c-83.45.12-142.69-111.09-150-194.44-7.16-81.67,32.5-171.21,71.49-174.06,27.88-2,38.6,41.47,78,43,42.49,1.65,58.12-47.86,88-44C587.05,92.48,620.07,182.55,611,262.56Z" transform="translate(-301.67 -78.79)"/><g class="cls-2"><circle class="cls-3" cx="106.33" cy="96.21" r="26"/><path d="M408,153a22,22,0,1,1-22,22,22,22,0,0,1,22-22m0-8a30,30,0,1,0,30,30,30,30,0,0,0-30-30Z" transform="translate(-301.67 -78.79)"/><circle class="cls-3" cx="106.33" cy="96.21" r="14"/><path d="M408,161a14,14,0,1,0,14,14,14,14,0,0,0-14-14Z" transform="translate(-301.67 -78.79)"/></g><g class="cls-2"><circle class="cls-3" cx="213.33" cy="96.21" r="26"/><path d="M515,153a22,22,0,1,1-22,22,22,22,0,0,1,22-22m0-8a30,30,0,1,0,30,30,30,30,0,0,0-30-30Z" transform="translate(-301.67 -78.79)"/><circle class="cls-3" cx="213.33" cy="96.21" r="14"/><path d="M515,161a14,14,0,1,0,14,14,14,14,0,0,0-14-14Z" transform="translate(-301.67 -78.79)"/></g><path d="M481.5,242.5c-2.19,4-6.53,2.49-11.5,7.5-8.41,8.46-6.23,22.48-8,22.5s0-12.79-8-21.5c-5.09-5.52-9.37-4.27-11.5-8.5-4.42-8.75,5.85-30,19.5-30C474.87,212.5,486.15,234,481.5,242.5Z" transform="translate(-301.67 -78.79)"/></svg>